<svg xmlns="http://www.w3.org/2000/svg" xmlns:xlink="http://www.w3.org/1999/xlink" width="598px" height="172px" viewBox="0 0 598 172" version="1.1" class="svg replaced-svg">
    <title>Group</title>
    <g id="Page-1" stroke="none" stroke-width="1" fill="none" fill-rule="evenodd">
        <g id="Halan-website-logo" transform="translate(-245.000000, -454.000000)">
            <g id="Group" transform="translate(245.964000, 454.907100)">
                <polygon class="halan-h-1 halan-color-2" id="Fill-7" fill="#FFFFFF" points="27.915 97.1693 27.915 170.1863 0 170.1863 0 82.9663"></polygon>
                <path class="halan-h-2 halan-color-1" d="M81.4483,56.179 L40.7863,45.946 C31.8913,42.811 27.9163,39.965 27.9163,29.932 L27.9163,5.68434189e-14 L0.0003,5.68434189e-14 L0.0003,30.869 C0.0003,50.907 3.7803,65.657 33.2623,73.311 L73.9243,83.544 C74.0573,83.578 74.1843,83.609 74.3153,83.641 C82.9273,86.72 86.7933,89.631 86.7943,99.506 L86.7943,169.28 L114.7103,169.28 L114.7103,98.622 C114.7103,67.674 101.0103,61.102 81.4483,56.179" id="Fill-9" fill="#1ED68D"></path>
                <path class="halan-a-2 halan-color-2" d="M423.1212,134.8591 C419.7482,138.0891 415.6242,140.6611 410.8472,142.4981 C406.0582,144.3341 400.6282,145.2631 394.7012,145.2631 C384.4782,145.2631 376.0242,142.2371 369.5952,136.2761 C363.2662,130.4161 359.1652,122.8451 357.3982,113.7561 C356.1752,107.4661 356.2092,101.4581 357.4982,95.9051 C358.7672,90.3631 361.1132,85.5231 364.4362,81.5111 C367.7452,77.5441 371.9452,74.3711 376.9152,72.0701 C381.9172,69.7581 387.6612,68.5801 393.9742,68.5801 C400.0152,68.5801 405.5032,69.6451 410.3082,71.7421 C415.1632,73.8611 419.3422,76.7621 422.7312,80.3781 C426.0802,83.9591 428.7372,88.2431 430.6252,93.1171 C432.4912,97.9341 433.4072,103.1131 433.3592,108.4061 C433.4992,113.7891 432.6552,118.7771 430.8722,123.2531 C429.0982,127.7071 426.4922,131.6181 423.1212,134.8591 L423.1212,134.8591 Z M437.0802,45.9801 L435.1792,59.6941 C431.0772,55.9081 426.7982,52.9621 422.5902,50.6721 C418.3712,48.3831 414.2232,46.7511 410.3942,45.5951 C408.0272,44.8471 405.6142,44.2691 403.1842,43.8381 C395.9292,42.4891 390.9812,42.8071 390.9812,42.8071 L391.0062,42.8181 C389.7122,42.8071 388.4242,42.8291 387.1662,42.8861 C376.3152,43.3851 366.7602,45.8331 358.8052,50.1511 C350.7972,54.4921 344.3072,60.1701 339.5192,67.0271 C334.7142,73.9061 331.4462,81.8741 329.8122,90.7261 C328.1772,99.5771 328.3042,108.9731 330.1852,118.6521 C331.8992,127.4691 334.7052,135.1991 338.5292,141.6371 C342.3172,148.0061 346.8872,153.3221 352.1042,157.4241 C357.3622,161.5611 363.1972,164.7571 369.4412,166.9101 C375.7352,169.0861 382.2732,170.1861 388.8922,170.1861 C392.6892,170.1861 396.2992,169.9821 399.7392,169.6081 L399.7302,169.6191 C399.7302,169.6191 401.6402,169.4721 404.6942,168.9161 C407.7412,168.3841 410.6242,167.7041 413.3012,166.8421 C413.3872,166.8201 413.4712,166.7861 413.5552,166.7521 C420.2512,164.6861 428.1752,161.1691 434.4242,155.2851 L437.3212,170.1861 L463.9552,170.1861 L463.9562,170.0731 L464.2812,45.9801 L437.0802,45.9801 Z" id="Fill-11" fill="#FFFFFF"></path>
                <path class="halan-a-1 halan-color-2" d="M225.7697,134.8591 C222.3967,138.0891 218.2727,140.6611 213.4957,142.4981 C208.7067,144.3341 203.2767,145.2631 197.3497,145.2631 C187.1267,145.2631 178.6727,142.2371 172.2437,136.2761 C165.9147,130.4161 161.8137,122.8451 160.0467,113.7561 C158.8237,107.4661 158.8577,101.4581 160.1467,95.9051 C161.4157,90.3631 163.7617,85.5231 167.0847,81.5111 C170.3937,77.5441 174.5937,74.3711 179.5637,72.0701 C184.5657,69.7581 190.3097,68.5801 196.6227,68.5801 C202.6637,68.5801 208.1517,69.6451 212.9567,71.7421 C217.8117,73.8611 221.9907,76.7621 225.3797,80.3781 C228.7287,83.9591 231.3857,88.2431 233.2737,93.1171 C235.1387,97.9341 236.0557,103.1131 236.0077,108.4061 C236.1477,113.7891 235.3037,118.7771 233.5207,123.2531 C231.7467,127.7071 229.1407,131.6181 225.7697,134.8591 L225.7697,134.8591 Z M239.7287,45.9801 L237.8277,59.6941 C233.7257,55.9081 229.4467,52.9621 225.2387,50.6721 C221.0197,48.3831 216.8717,46.7511 213.0427,45.5951 C210.6757,44.8471 208.2627,44.2691 205.8327,43.8381 C198.5777,42.4891 193.6297,42.8071 193.6297,42.8071 L193.6547,42.8181 C192.3607,42.8071 191.0727,42.8291 189.8147,42.8861 C178.9637,43.3851 169.4087,45.8331 161.4537,50.1511 C153.4457,54.4921 146.9557,60.1701 142.1677,67.0271 C137.3627,73.9061 134.0947,81.8741 132.4607,90.7261 C130.8257,99.5771 130.9527,108.9731 132.8337,118.6521 C134.5477,127.4691 137.3537,135.1991 141.1777,141.6371 C144.9657,148.0061 149.5357,153.3221 154.7527,157.4241 C160.0107,161.5611 165.8457,164.7571 172.0897,166.9101 C178.3837,169.0861 184.9217,170.1861 191.5407,170.1861 C195.3377,170.1861 198.9477,169.9821 202.3877,169.6081 L202.3787,169.6191 C202.3787,169.6191 204.2887,169.4721 207.3427,168.9161 C210.3897,168.3841 213.2727,167.7041 215.9497,166.8421 C216.0357,166.8201 216.1197,166.7861 216.2037,166.7521 C222.8997,164.6861 230.8237,161.1691 237.0727,155.2851 L239.9697,170.1861 L266.6037,170.1861 L266.6047,170.0731 L266.9297,45.9801 L239.7287,45.9801 Z" id="Fill-13" fill="#FFFFFF"></path>
                <polygon class="halan-l halan-color-2" id="Fill-15" fill="#FFFFFF" points="283.614 170.1519 311.53 170.1519 311.53 0.0369 283.614 0.0369"></polygon>
                <path class="halan-n halan-color-2" d="M593.7554,78.0402 C593.7434,78.0072 593.7314,77.9742 593.7184,77.9422 C592.5904,74.9542 591.1644,72.0262 589.3474,69.2252 C584.3314,61.4512 576.7104,55.7902 568.4954,51.9972 C565.9314,50.8172 563.3094,49.8072 560.6864,48.9842 C553.1504,46.5992 544.2744,46.0062 538.9174,46.0562 C538.9174,46.0562 521.6504,46.3712 508.3074,54.8032 L506.7954,46.0532 L481.4254,46.0532 L481.4254,96.7282 L481.4254,170.1522 L481.4254,170.1542 L509.0424,170.1542 L509.3394,170.1542 L509.3394,170.1522 L509.3414,170.1522 L509.3414,101.2472 C509.7414,93.8542 510.9174,85.9212 517.2834,80.0382 C523.2504,74.5382 531.5594,72.1962 538.7304,72.1962 L538.9174,72.1962 L539.1044,72.1962 C546.2754,72.1962 554.5844,74.5382 560.5514,80.0382 C566.9244,85.9282 568.0964,93.8722 568.4954,101.2732 L568.4954,170.1542 L568.7924,170.1542 L596.4094,170.1542 L596.4094,93.3342 C596.4094,88.1212 595.5894,82.9192 593.7554,78.0402" id="Fill-17" fill="#FFFFFF"></path>
            </g>
        </g>
    </g>
</svg>